<svg width="73" height="84" viewBox="0 0 73 84" fill="none" xmlns="http://www.w3.org/2000/svg">
<path d="M25.7863 3.39877C25.4146 2.77915 24.7449 2.40002 24.0223 2.40002H4.13467C2.53566 2.40002 1.54801 4.14441 2.37069 5.51555L24.5878 42.5441C24.9596 43.1637 25.6292 43.5429 26.3518 43.5429H46.2395C47.8385 43.5429 48.8262 41.7985 48.0035 40.4273L25.7863 3.39877Z" fill="#C52229"/>
<path fill-rule="evenodd" clip-rule="evenodd" d="M24.0216 0.342781H4.13392C0.935909 0.342781 -1.03941 3.83158 0.605949 6.57385L22.8231 43.6024C23.5666 44.8417 24.9059 45.5999 26.3511 45.5999H46.2387C49.4367 45.5999 51.4121 42.1111 49.7667 39.3689L27.5496 2.34029C26.806 1.10104 25.4668 0.342781 24.0216 0.342781ZM24.0216 2.39992C24.7442 2.39992 25.4138 2.77905 25.7856 3.39868L48.0027 40.4272C48.8254 41.7984 47.8377 43.5428 46.2387 43.5428H26.3511C25.6285 43.5428 24.9589 43.1636 24.5871 42.544L2.36993 5.51546C1.54726 4.14432 2.53492 2.39992 4.13392 2.39992H24.0216Z" fill="#9B0F15"/>
<path d="M47.2156 3.39877C47.5874 2.77915 48.257 2.40002 48.9796 2.40002H68.8673C70.4663 2.40002 71.4539 4.14441 70.6313 5.51555L48.4141 42.5441C48.0424 43.1637 47.3727 43.5429 46.6501 43.5429H26.7625C25.1635 43.5429 24.1758 41.7985 24.9985 40.4273L47.2156 3.39877Z" fill="#F1333B"/>
<path fill-rule="evenodd" clip-rule="evenodd" d="M48.9804 0.342781H68.868C72.066 0.342781 74.0414 3.83158 72.396 6.57385L50.1789 43.6024C49.4353 44.8417 48.0961 45.5999 46.6509 45.5999H26.7632C23.5652 45.5999 21.5899 42.1111 23.2352 39.3689L45.4524 2.34029C46.1959 1.10104 47.5352 0.342781 48.9804 0.342781ZM48.9804 2.39992C48.2578 2.39992 47.5881 2.77905 47.2164 3.39868L24.9992 40.4272C24.1766 41.7984 25.1642 43.5428 26.7632 43.5428H46.6509C47.3735 43.5428 48.0431 43.1636 48.4149 42.544L70.632 5.51546C71.4547 4.14432 70.467 2.39992 68.868 2.39992H48.9804Z" fill="#9B0F15"/>
<path fill-rule="evenodd" clip-rule="evenodd" d="M49.36 3.56757C49.8512 3.85282 50.0182 4.4823 49.733 4.97355L40.4759 20.9164C40.1906 21.4077 39.5611 21.5747 39.0699 21.2894C38.5786 21.0042 38.4116 20.3747 38.6969 19.8834L47.954 3.94059C48.2392 3.44933 48.8687 3.28233 49.36 3.56757Z" fill="#FE666D"/>
<path fill-rule="evenodd" clip-rule="evenodd" d="M4.09705 3.56757C3.60579 3.85282 3.43879 4.4823 3.72403 4.97355L12.9812 20.9164C13.2664 21.4077 13.8959 21.5747 14.3872 21.2894C14.8784 21.0042 15.0454 20.3747 14.7602 19.8834L5.50303 3.94059C5.21778 3.44933 4.5883 3.28233 4.09705 3.56757Z" fill="#DF3840"/>
<path d="M23.6437 5.77489C23.6437 6.50272 23.0681 7.09275 22.358 7.09275C21.6479 7.09275 21.0723 6.50272 21.0723 5.77489C21.0723 5.04706 21.6479 4.45703 22.358 4.45703C23.0681 4.45703 23.6437 5.04706 23.6437 5.77489Z" fill="#AA161D"/>
<path d="M19.1273 6.09632C19.1273 7.00167 18.4113 7.7356 17.528 7.7356C16.6447 7.7356 15.9287 7.00167 15.9287 6.09632C15.9287 5.19096 16.6447 4.45703 17.528 4.45703C18.4113 4.45703 19.1273 5.19096 19.1273 6.09632Z" fill="#AA161D"/>
<path d="M23.1293 10.7892C23.1293 11.6945 22.4132 12.4285 21.53 12.4285C20.6467 12.4285 19.9307 11.6945 19.9307 10.7892C19.9307 9.88384 20.6467 9.1499 21.53 9.1499C22.4132 9.1499 23.1293 9.88384 23.1293 10.7892Z" fill="#AA161D"/>
<path d="M26.7849 8.55523C26.7849 9.00791 26.4268 9.37487 25.9852 9.37487C25.5436 9.37487 25.1855 9.00791 25.1855 8.55523C25.1855 8.10255 25.5436 7.73559 25.9852 7.73559C26.4268 7.73559 26.7849 8.10255 26.7849 8.55523Z" fill="#AA161D"/>
<path d="M18.3278 9.96955C18.3278 10.4222 17.9698 10.7892 17.5282 10.7892C17.0865 10.7892 16.7285 10.4222 16.7285 9.96955C16.7285 9.51687 17.0865 9.1499 17.5282 9.1499C17.9698 9.1499 18.3278 9.51687 18.3278 9.96955Z" fill="#AA161D"/>
<path d="M13.8718 4.95522C13.8718 5.40789 13.5137 5.77486 13.0721 5.77486C12.6305 5.77486 12.2725 5.40789 12.2725 4.95522C12.2725 4.50254 12.6305 4.13557 13.0721 4.13557C13.5137 4.13557 13.8718 4.50254 13.8718 4.95522Z" fill="#AA161D"/>
<path d="M25.985 14.2766C25.985 14.7293 25.627 15.0963 25.1854 15.0963C24.7438 15.0963 24.3857 14.7293 24.3857 14.2766C24.3857 13.824 24.7438 13.457 25.1854 13.457C25.627 13.457 25.985 13.824 25.985 14.2766Z" fill="#AA161D"/>
<path d="M21.8708 15.0964C21.8708 15.549 21.5128 15.916 21.0711 15.916C20.6295 15.916 20.2715 15.549 20.2715 15.0964C20.2715 14.6437 20.6295 14.2767 21.0711 14.2767C21.5128 14.2767 21.8708 14.6437 21.8708 15.0964Z" fill="#AA161D"/>
<path d="M29.846 12.1231C29.846 12.8598 29.2633 13.457 28.5446 13.457C27.8258 13.457 27.2432 12.8598 27.2432 12.1231C27.2432 11.3864 27.8258 10.7892 28.5446 10.7892C29.2633 10.7892 29.846 11.3864 29.846 12.1231Z" fill="#AA161D"/>
<path d="M31.5417 15.9159C31.5417 16.3686 31.1837 16.7355 30.742 16.7355C30.3004 16.7355 29.9424 16.3686 29.9424 15.9159C29.9424 15.4632 30.3004 15.0963 30.742 15.0963C31.1837 15.0963 31.5417 15.4632 31.5417 15.9159Z" fill="#AA161D"/>
<path d="M64.2704 53.8282C64.2704 69.1659 51.8367 81.5996 36.499 81.5996C21.1612 81.5996 8.72754 69.1659 8.72754 53.8282C8.72754 38.4904 21.1612 26.0568 36.499 26.0568C51.8367 26.0568 64.2704 38.4904 64.2704 53.8282Z" fill="#FFBB0D"/>
<path fill-rule="evenodd" clip-rule="evenodd" d="M66.328 53.8281C66.328 70.302 52.9733 83.6567 36.4995 83.6567C20.0256 83.6567 6.6709 70.302 6.6709 53.8281C6.6709 37.3542 20.0256 23.9995 36.4995 23.9995C52.9733 23.9995 66.328 37.3542 66.328 53.8281ZM36.4995 81.5995C51.8372 81.5995 64.2709 69.1658 64.2709 53.8281C64.2709 38.4904 51.8372 26.0567 36.4995 26.0567C21.1617 26.0567 8.72804 38.4904 8.72804 53.8281C8.72804 69.1658 21.1617 81.5995 36.4995 81.5995Z" fill="#E89B05"/>
<path fill-rule="evenodd" clip-rule="evenodd" d="M10.7855 54.8567C10.2174 54.8567 9.75689 54.3962 9.75689 53.8281C9.75689 39.0585 21.7301 27.0853 36.4998 27.0853C37.0678 27.0853 37.5283 27.5458 37.5283 28.1138C37.5283 28.6819 37.0678 29.1424 36.4998 29.1424C22.8662 29.1424 11.814 40.1946 11.814 53.8281C11.814 54.3962 11.3535 54.8567 10.7855 54.8567Z" fill="#E8AA0A"/>
<path fill-rule="evenodd" clip-rule="evenodd" d="M62.2136 52.7995C62.7816 52.7995 63.2421 53.26 63.2421 53.828C63.2421 68.5977 51.2689 80.5709 36.4993 80.5709C35.9312 80.5709 35.4707 80.1104 35.4707 79.5423C35.4707 78.9743 35.9312 78.5138 36.4993 78.5138C50.1328 78.5138 61.185 67.4616 61.185 53.828C61.185 53.26 61.6455 52.7995 62.2136 52.7995Z" fill="#E8AA0A"/>
<path d="M57.0716 53.828C57.0716 65.1893 47.8614 74.3995 36.5001 74.3995C25.1389 74.3995 15.9287 65.1893 15.9287 53.828C15.9287 42.4667 25.1389 33.2566 36.5001 33.2566C47.8614 33.2566 57.0716 42.4667 57.0716 53.828Z" fill="#FFDD28"/>
<path fill-rule="evenodd" clip-rule="evenodd" d="M59.1282 53.8281C59.1282 66.3255 48.9971 76.4567 36.4997 76.4567C24.0022 76.4567 13.8711 66.3255 13.8711 53.8281C13.8711 41.3307 24.0022 31.1996 36.4997 31.1996C48.9971 31.1996 59.1282 41.3307 59.1282 53.8281ZM36.4997 74.3996C47.8609 74.3996 57.0711 65.1894 57.0711 53.8281C57.0711 42.4668 47.8609 33.2567 36.4997 33.2567C25.1384 33.2567 15.9282 42.4668 15.9282 53.8281C15.9282 65.1894 25.1384 74.3996 36.4997 74.3996Z" fill="#E89B05"/>
<path fill-rule="evenodd" clip-rule="evenodd" d="M36.5001 71.3137C46.1572 71.3137 53.9858 63.4851 53.9858 53.828C53.9858 53.2599 54.4463 52.7994 55.0144 52.7994C55.5825 52.7994 56.043 53.2599 56.043 53.828C56.043 64.6212 47.2933 73.3709 36.5001 73.3709C35.932 73.3709 35.4715 72.9104 35.4715 72.3423C35.4715 71.7742 35.932 71.3137 36.5001 71.3137Z" fill="#ECC704"/>
<path fill-rule="evenodd" clip-rule="evenodd" d="M36.4989 36.3425C26.8418 36.3425 19.0132 44.1711 19.0132 53.8282C19.0132 54.3962 18.5527 54.8567 17.9846 54.8567C17.4166 54.8567 16.9561 54.3962 16.9561 53.8282C16.9561 43.0349 25.7057 34.2853 36.4989 34.2853C37.067 34.2853 37.5275 34.7458 37.5275 35.3139C37.5275 35.8819 37.067 36.3425 36.4989 36.3425Z" fill="#FFEF9C"/>
<path d="M25.1846 51.1538L32.256 49.7138L34.3774 46.1138L36.4989 42.5138L40.7417 49.7138L47.8131 51.1538L42.156 56.9138L43.5703 64.1138L36.4989 60.5138L29.4274 64.1138L30.8417 56.9138L25.1846 51.1538Z" fill="#FFEF9C"/>
<path fill-rule="evenodd" clip-rule="evenodd" d="M32.2565 49.7138L36.4994 42.5138L40.7423 49.7138L47.8137 51.1538L42.1565 56.9138L43.5708 64.1138L36.4994 60.5138L29.428 64.1138L30.8423 56.9138L25.1851 51.1538L32.2565 49.7138ZM28.6147 57.5815L23.7175 52.5952C23.1891 52.0572 22.9974 51.2733 23.2179 50.5522C23.4384 49.8311 24.0357 49.2884 24.7746 49.138L30.949 47.8807L34.7271 41.4694C35.0969 40.8418 35.771 40.4566 36.4994 40.4566C37.2278 40.4566 37.9019 40.8418 38.2717 41.4694L42.0498 47.8807L48.2242 49.138C48.9631 49.2884 49.5604 49.8311 49.7809 50.5522C50.0014 51.2733 49.8097 52.0572 49.2814 52.5952L44.3842 57.5815L45.5894 63.7173C45.7411 64.4896 45.4388 65.2808 44.8108 65.7552C44.1827 66.2296 43.339 66.3041 42.6375 65.947L36.4994 62.8221L30.3613 65.947C29.6598 66.3041 28.8161 66.2296 28.1881 65.7552C27.56 65.2808 27.2577 64.4896 27.4094 63.7173L28.6147 57.5815Z" fill="#E89B05"/>
</svg>
