<svg width="34" height="34" viewBox="0 0 34 34" fill="none" xmlns="http://www.w3.org/2000/svg">
<path d="M27.9997 29.5H31.9997V32.8333H21.9997V22.8333H25.333V27.3833C28.383 24.9333 30.333 21.2 30.333 17C30.333 10.2167 25.233 4.60001 18.6663 3.78334V0.416672C27.083 1.25001 33.6663 8.35 33.6663 17C33.6663 21.9833 31.4663 26.45 27.9997 29.5ZM3.66634 17C3.66634 12.8 5.61634 9.05 8.66634 6.61667V11.1667H11.9997V1.16667H1.99967V4.50001H5.99967C2.53301 7.55 0.333008 12.0167 0.333008 17C0.333008 25.65 6.91634 32.75 15.333 33.5833V30.2167C8.76634 29.4 3.66634 23.7833 3.66634 17ZM24.0663 10.5167L14.633 19.95L9.91634 15.2333L7.56634 17.5833L14.633 24.65L26.4163 12.8667L24.0663 10.5167Z" fill="#58D96B"/>
</svg>
