<svg width="32" height="30" viewBox="0 0 32 30" fill="none" xmlns="http://www.w3.org/2000/svg">
<path d="M30 7.13333V3.33333C30 1.5 28.5 0 26.6667 0H3.33333C1.48333 0 0 1.5 0 3.33333V26.6667C0 28.5 1.48333 30 3.33333 30H26.6667C28.5 30 30 28.5 30 26.6667V22.8667C30.9833 22.2833 31.6667 21.2333 31.6667 20V10C31.6667 8.76667 30.9833 7.71667 30 7.13333ZM28.3333 10V20H16.6667V10H28.3333ZM3.33333 26.6667V3.33333H26.6667V6.66667H16.6667C14.8333 6.66667 13.3333 8.16667 13.3333 10V20C13.3333 21.8333 14.8333 23.3333 16.6667 23.3333H26.6667V26.6667H3.33333Z" fill="#58D96B"/>
</svg>
